<?xml version="1.0" encoding="UTF-8" standalone="no"?>

<svg
    xmlns:dc="http://purl.org/dc/elements/1.1/"
    xmlns:cc="http://creativecommons.org/ns#"
    xmlns:rdf="http://www.w3.org/1999/02/22-rdf-syntax-ns#"
    xmlns:svg="http://www.w3.org/2000/svg"
    xmlns="http://www.w3.org/2000/svg"
    id="svg3410"
    version="1.1"
    width="154.2"
    height="93"
    viewBox="0 0 154.2 93">
    <defs
        id="defs3414" />
    <path
        style="fill:#09e3e3;fill-opacity:1;stroke:none;stroke-width:1px;stroke-linecap:butt;stroke-linejoin:miter;stroke-opacity:1"
        d="m 21.852033,92.673727 c -0.09418,-0.09339 0.121282,-3.450113 0.280736,-4.373709 0.513795,-2.976035 1.70016,-6.187136 3.170794,-8.5823 0.237561,-0.386907 0.521168,-0.877575 0.630237,-1.090374 0.10907,-0.212799 0.250923,-0.386907 0.315228,-0.386907 0.06431,0 0.116919,-0.07 0.116919,-0.155556 0,-0.08556 0.15828,-0.343662 0.351734,-0.573569 0.193453,-0.229906 0.351733,-0.476465 0.351733,-0.547911 0,-0.07743 -2.500258,-0.129898 -6.190511,-0.129898 l -6.19051,0 0,-1.829014 0,-1.829015 7.832884,0 7.832884,0 1.769442,-1.726107 c 0.973194,-0.949359 2.045956,-1.946523 2.383916,-2.215922 0.337959,-0.269398 0.686175,-0.555687 0.773813,-0.636197 0.349652,-0.321219 2.450372,-2.003002 3.07438,-2.461273 0.365168,-0.26818 0.6659,-0.535084 0.668294,-0.59312 0.0024,-0.05804 -3.433494,-0.10552 -7.635303,-0.10552 -5.754362,0 -7.681317,-0.04166 -7.808486,-0.168832 -0.111034,-0.111034 -0.168832,-0.703467 -0.168832,-1.730529 0,-1.027062 0.0578,-1.619495 0.168832,-1.730529 0.128279,-0.128279 2.675213,-0.168832 10.60338,-0.168832 9.898468,0 10.451787,-0.01324 10.770082,-0.25767 0.184544,-0.141718 1.633431,-1.125174 3.21975,-2.185456 1.586318,-1.060283 2.947527,-1.973866 3.024908,-2.030187 0.730399,-0.531603 6.721315,-4.390373 6.816252,-4.390373 0.06854,0 0.145728,-0.04748 0.171522,-0.10552 0.04592,-0.103326 2.727739,-1.907405 3.282847,-2.208399 0.154762,-0.08392 0.959881,-0.610607 1.78915,-1.170423 0.829271,-0.559816 1.567912,-1.017848 1.641424,-1.017848 0.07351,0 0.154763,-0.05546 0.180557,-0.123252 0.02579,-0.06779 0.490082,-0.408503 1.031752,-0.757143 1.046371,-0.673485 1.321883,-0.832751 3.095255,-1.789275 0.619051,-0.333905 1.410452,-0.766116 1.758668,-0.960468 0.560836,-0.313023 2.172813,-1.159132 4.680538,-2.456763 0.765546,-0.396134 1.109005,-0.666384 0.846906,-0.666384 -0.118353,0 -2.35936,-1.41017 -2.672463,-1.681667 -0.09346,-0.08104 -0.212525,-0.147347 -0.264584,-0.147347 -0.05206,0 -0.387121,-0.207937 -0.744579,-0.462082 -1.018702,-0.724276 -1.694518,-1.085546 -2.030695,-1.085546 -0.170216,0 -0.878858,0.223855 -1.574759,0.497454 -0.695899,0.273601 -1.835081,0.688528 -2.531513,0.922063 -0.696433,0.233532 -1.392865,0.479234 -1.547628,0.546003 -0.154763,0.06677 -0.408011,0.151681 -0.562774,0.188699 -0.154763,0.03702 -1.009475,0.317876 -1.899361,0.62413 -0.889886,0.306256 -2.092815,0.700433 -2.673175,0.875951 -0.580361,0.175516 -1.213481,0.36744 -1.406935,0.426495 -0.193453,0.05906 -0.636637,0.185372 -0.984854,0.280701 -0.348216,0.09533 -0.7914,0.226831 -0.984854,0.292222 -0.443607,0.14995 -3.726663,1.049726 -4.291149,1.176064 -0.232144,0.05195 -0.675329,0.150912 -0.984854,0.219903 -0.309526,0.06899 -0.847678,0.195425 -1.195894,0.280962 -0.348217,0.08554 -0.918025,0.215244 -1.266241,0.288236 -0.348216,0.07299 -0.886369,0.190009 -1.195894,0.260035 -6.149652,1.391297 -12.040091,2.044093 -18.501186,2.050359 -5.013408,0.0049 -7.578505,-0.225267 -11.536861,-1.035033 -1.274186,-0.260663 -4.060526,-1.081356 -4.92427,-1.450405 -0.193454,-0.08266 -0.478358,-0.198922 -0.633121,-0.258369 -0.824842,-0.31684 -2.879326,-1.339427 -3.53947,-1.761715 -0.416429,-0.266386 -0.786846,-0.484339 -0.823149,-0.484339 -0.0363,0 -0.177527,-0.09144 -0.313829,-0.203199 C 7.272814,41.767267 6.781422,41.393108 6.317134,41.047563 4.043659,39.35553 2.002436,36.554184 1.330078,34.203394 1.230478,33.855178 1.093071,33.386718 1.024717,33.162373 0.85518903,32.605962 0.86723403,29.479716 1.041127,28.902206 c 0.07738,-0.256983 0.208191,-0.704663 0.290687,-0.994843 0.140787,-0.495215 0.221919,-0.707814 0.604034,-1.582801 0.611674,-1.400641 2.396971,-3.470321 4.191997,-4.859745 1.185994,-0.918006 4.381832,-2.597007 4.94319,-2.597007 0.101439,0 0.244581,-0.05039 0.318094,-0.111972 0.184142,-0.154263 0.883315,-0.376913 2.4551,-0.781816 1.285758,-0.331222 2.094337,-0.488045 4.091634,-0.793572 1.202747,-0.183983 8.938679,-0.183661 10.358869,4.22e-4 2.670122,0.346117 3.435744,0.462094 4.824497,0.730815 2.822379,0.546129 4.197757,0.852393 5.55739,1.237502 0.309526,0.08767 0.784366,0.211976 1.055201,0.276232 0.270835,0.06426 0.998923,0.276201 1.617974,0.470988 0.619051,0.194787 1.473764,0.46146 1.899362,0.592609 0.425597,0.131147 0.900438,0.290681 1.0552,0.354518 0.154763,0.06384 0.534635,0.19649 0.844161,0.294782 0.309525,0.09829 0.62292,0.229103 0.696432,0.290687 0.07351,0.06158 0.24848,0.111972 0.388817,0.111972 0.140336,0 0.365093,0.0588 0.499461,0.130659 0.134368,0.07186 0.877425,0.365907 1.651239,0.653433 0.773814,0.287525 1.691838,0.646566 2.040054,0.797869 0.348217,0.151303 0.775573,0.332099 0.949681,0.401769 l 0.633121,0.253344 c 0.688469,0.275491 2.965558,1.313402 4.889096,2.228481 2.910776,1.384731 7.795836,3.892566 8.019526,4.116968 0.03869,0.03881 0.260282,0.164973 0.492427,0.280353 0.232144,0.11538 1.118512,0.614508 1.969708,1.109172 0.851195,0.494665 1.737563,1.008611 1.969708,1.142101 0.232144,0.13349 0.767707,0.447653 1.190139,0.698141 l 0.768061,0.45543 0.779567,-0.307391 c 0.821287,-0.323843 1.166896,-0.462824 1.799596,-0.723679 0.212799,-0.08773 0.513531,-0.208049 0.668294,-0.267366 0.154762,-0.05932 0.581429,-0.240781 0.948147,-0.403255 0.366718,-0.162474 0.694482,-0.295409 0.728365,-0.295409 0.03388,0 0.556897,-0.224209 1.162255,-0.498243 0.605357,-0.274034 1.227273,-0.550917 1.382035,-0.615297 0.324411,-0.134951 1.15728,-0.508909 2.462135,-1.105502 0.502979,-0.229966 1.167756,-0.531531 1.477281,-0.670142 0.697436,-0.312325 3.649442,-1.71425 5.352839,-2.542093 0.700001,-0.340196 1.348949,-0.61854 1.442108,-0.61854 0.09316,0 0.169378,-0.06331 0.169378,-0.140693 0,-0.07738 0.113962,-0.140694 0.253248,-0.140694 0.139287,0 0.313395,-0.05709 0.386907,-0.126869 0.07351,-0.06978 1.273276,-0.710302 2.666141,-1.423385 1.392865,-0.713085 2.78573,-1.440417 3.095255,-1.616293 0.309526,-0.175877 1.100926,-0.601949 1.758668,-0.946828 0.657742,-0.344879 1.417486,-0.752849 1.688321,-0.9066 0.270835,-0.153751 0.967263,-0.527505 1.547623,-0.830563 0.58037,-0.303056 1.07631,-0.598497 1.1021,-0.656533 0.0258,-0.05804 0.0999,-0.10552 0.16477,-0.10552 0.0648,0 0.67685,-0.323093 1.36004,-0.717982 0.68319,-0.394892 1.49541,-0.86078 1.80494,-1.03531 0.30952,-0.174529 0.78436,-0.445158 1.0552,-0.601397 0.65255,-0.37644 2.21482,-1.276438 2.74352,-1.580494 0.23214,-0.133506 1.33195,-0.790539 2.44402,-1.460073 1.11207,-0.669526 2.07758,-1.217327 2.14558,-1.217327 0.068,0 0.12363,-0.06331 0.12363,-0.140693 0,-0.07738 0.0611,-0.140694 0.13579,-0.140694 0.0747,0 0.67558,-0.348216 1.3353,-0.773813 0.65973,-0.425598 1.22969,-0.773814 1.26658,-0.773814 0.0369,0 0.89423,-0.5381529 1.90521,-1.1958943 1.01099,-0.6577418 1.86417,-1.1958941 1.89597,-1.1958941 0.054,0 1.21926,-0.7535767 6.23486,-4.0320648 1.10587,-0.7228574 2.09241,-1.3142854 2.19231,-1.3142854 0.21047,0 1.86684,2.3391177 1.93903,2.7382858 0.0369,0.2040103 -0.32194,0.529101 -1.49912,1.3581411 -0.85119,0.5994619 -1.62677,1.0942731 -1.72349,1.0995804 -0.0967,0.00531 -0.17587,0.072961 -0.17587,0.1503429 0,0.077381 -0.0575,0.1406934 -0.12774,0.1406934 -0.0703,0 -1.58932,0.9496806 -3.37568,2.110401 -1.78636,1.160721 -3.28444,2.110402 -3.32907,2.110402 -0.0446,0 -0.34579,0.181931 -0.66926,0.404291 -0.57022,0.391987 -3.25009,2.056192 -4.10546,2.5495 -0.23214,0.133882 -1.00581,0.600354 -1.71927,1.036604 -0.71345,0.436249 -1.36239,0.793181 -1.4421,0.793181 -0.0797,0 -0.14542,0.04748 -0.14602,0.10552 -5.6e-4,0.05804 -0.14306,0.174706 -0.31656,0.259269 -0.17351,0.08456 -1.62066,0.915454 -3.21589,1.846429 -1.59523,0.930976 -3.273,1.900015 -3.72837,2.153419 -0.45538,0.253404 -1.27114,0.707143 -1.81281,1.00831 -0.54167,0.301166 -1.20645,0.655806 -1.47728,0.788089 -0.27084,0.132284 -0.51353,0.287999 -0.53933,0.346035 -0.0258,0.05804 -0.0972,0.10552 -0.15874,0.10552 -0.0615,0 -0.61022,0.275207 -1.21934,0.611569 -3.904029,2.155836 -13.234877,6.801827 -17.076204,8.502536 -0.348216,0.154169 -0.918025,0.405978 -1.266241,0.559573 -0.348216,0.153595 -1.171273,0.516667 -1.829014,0.806826 -1.239072,0.546608 -1.978424,0.863821 -2.462135,1.056358 -0.154763,0.0616 -0.503931,0.209337 -0.775928,0.328301 -0.271995,0.118963 -0.667695,0.282132 -0.879333,0.362596 -0.495557,0.188411 -0.48604,0.358934 0.03729,0.66807 0.232144,0.137131 0.42208,0.298991 0.42208,0.359689 0,0.0607 0.06134,0.110358 0.136307,0.110358 0.07497,0 0.565637,0.272435 1.090374,0.60541 0.524737,0.332975 1.508817,0.880684 2.186846,1.217133 l 1.23278,0.611724 0.596234,-0.288579 c 0.67741,-0.327867 2.104483,-0.985724 3.093545,-1.426072 1.375053,-0.612196 2.01679,-0.89508 2.426962,-1.069827 0.232144,-0.0989 0.706984,-0.304689 1.0552,-0.457304 0.348217,-0.152615 1.392865,-0.579458 2.321442,-0.948539 0.928577,-0.369079 1.941569,-0.781462 2.251095,-0.916402 0.309525,-0.134942 1.38583,-0.54194 2.391788,-0.904441 1.005958,-0.362502 1.938951,-0.718988 2.073319,-0.792192 0.134368,-0.07321 0.34099,-0.133101 0.459163,-0.133101 0.118172,0 0.324795,-0.06208 0.459163,-0.137954 0.252668,-0.142677 4.254467,-1.494071 5.063047,-1.709774 0.25149,-0.06709 0.66302,-0.181722 0.91451,-0.254741 0.4439,-0.128883 1.02824,-0.294433 1.96971,-0.558042 1.06492,-0.298177 4.43582,-1.182424 4.88909,-1.282499 0.27084,-0.0598 0.84065,-0.185846 1.26625,-0.280112 0.42559,-0.09427 1.07454,-0.227275 1.4421,-0.295576 0.36756,-0.0683 1.00069,-0.18996 1.40694,-0.270352 0.71774,-0.142032 1.75489,-0.313299 3.34147,-0.551787 4.07028,-0.61183 5.75701,-0.732963 10.27062,-0.737591 3.98026,-0.0041 4.82767,0.0343 6.54224,0.296359 2.06066,0.314949 2.97623,0.479943 3.9746,0.716262 0.32887,0.07785 0.83537,0.196544 1.12555,0.263776 1.72339,0.399288 4.42371,1.501068 6.61138,2.697562 1.52286,0.832892 3.6048,2.643244 4.85367,4.220501 0.47945,0.605537 1.42612,2.397909 1.70878,3.235323 0.49428,1.464343 0.6381,3.620128 0.35559,5.329822 -0.29175,1.765455 -1.05125,3.461877 -2.24314,5.010225 -0.4979,0.646804 -2.35529,2.503236 -3.0288,3.027225 -1.91723,1.491614 -5.37254,3.153242 -8.22231,3.954044 -6.47742,1.820187 -14.65539,2.00827 -23.7772,0.546848 -2.4292,-0.389187 -4.12084,-0.73436 -6.61259,-1.349277 -0.8125,-0.20051 -1.69887,-0.419073 -1.96971,-0.485694 -0.27083,-0.06662 -0.74567,-0.194543 -1.0552,-0.28427 -0.30952,-0.08973 -0.76912,-0.195899 -1.02133,-0.235939 -0.25221,-0.04004 -0.49336,-0.129118 -0.5359,-0.19795 -0.0425,-0.06883 -0.18262,-0.125148 -0.31129,-0.125148 -0.25478,0 -1.1916,-0.278581 -4.11095,-1.222468 -1.044643,-0.337757 -2.009292,-0.675716 -2.14366,-0.751019 -0.134368,-0.0753 -0.34099,-0.136914 -0.459163,-0.136914 -0.118173,0 -0.324795,-0.06032 -0.459163,-0.134049 -0.134372,-0.07373 -0.655836,-0.272434 -1.158815,-0.441572 -1.048116,-0.352454 -6.819011,-2.644333 -8.002519,-3.178156 -0.434952,-0.196186 -0.980757,-0.437326 -1.212901,-0.535866 -1.660948,-0.705042 -2.792675,-1.219057 -4.642883,-2.108737 -0.851195,-0.409301 -1.652311,-0.778886 -1.780256,-0.821302 -0.198461,-0.06579 -3.837409,1.672916 -5.645602,2.697498 -0.292534,0.165759 -0.624923,0.301381 -0.738641,0.301381 -0.113718,0 -0.207254,0.04748 -0.207858,0.10552 -5.62e-4,0.05804 -0.143055,0.172178 -0.31656,0.253649 -0.609522,0.28621 -2.98942,1.53808 -3.058984,1.609084 -0.03869,0.03949 -0.323595,0.204506 -0.633121,0.366701 -1.047945,0.549132 -1.686751,0.927956 -2.136188,1.2668 -0.246326,0.185714 -0.515402,0.337662 -0.597947,0.337662 -0.08255,0 -0.15008,0.06331 -0.15008,0.140693 0,0.07738 -0.07019,0.140694 -0.155974,0.140694 -0.08579,0 -0.84273,0.47484 -1.682099,1.0552 -0.839367,0.580361 -1.592236,1.055201 -1.67304,1.055201 -0.0808,0 -0.146916,0.06331 -0.146916,0.140693 0,0.07738 -0.08303,0.140694 -0.184511,0.140694 -0.101481,0 -0.307468,0.110796 -0.457748,0.246213 -0.415394,0.374311 -2.71208,1.864188 -2.873697,1.864188 -0.07814,0 -0.142073,0.06331 -0.142073,0.140694 0,0.07738 -0.06568,0.140693 -0.145952,0.140693 -0.08027,0 -0.740338,0.411528 -1.466812,0.914507 -0.726474,0.50298 -1.388884,0.914508 -1.472024,0.914508 -0.08314,0 -0.151161,0.06331 -0.151161,0.140693 0,0.07738 -0.06594,0.140694 -0.146545,0.140694 -0.0806,0 -0.745097,0.411528 -1.476662,0.914507 -0.731565,0.502979 -1.393708,0.914507 -1.47143,0.914507 -0.07772,0 -0.141312,0.0554 -0.141312,0.123121 0,0.06772 -0.17578,0.210168 -0.39062,0.31656 -0.784318,0.388403 -1.709638,1.041998 -1.714645,1.211131 -0.0039,0.132379 0.870679,0.182426 3.688066,0.211041 l 3.693202,0.03751 0,1.829015 0,1.829015 -6.73723,0.03655 -6.737228,0.03655 -1.192576,0.877958 c -3.267241,2.405299 -5.925141,4.430573 -6.22594,4.74406 -0.03869,0.04032 -0.449676,0.389874 -0.913299,0.776781 -0.463624,0.386907 -0.991055,0.830092 -1.172069,0.984854 l -0.329117,0.281387 7.292234,0.07035 7.292233,0.07035 0,1.758668 0,1.758667 -9.13558,0.03621 c -8.478848,0.0336 -9.151725,0.05383 -9.360181,0.281387 -0.464314,0.506852 -1.807241,2.240895 -2.260115,2.918353 -0.258643,0.386907 -0.506095,0.735123 -0.549893,0.773814 -0.152569,0.134779 -0.731628,1.204946 -1.370306,2.532482 -0.801539,1.666056 -0.943404,2.016629 -1.19561,2.954562 -0.07283,0.270835 -0.192675,0.714019 -0.266333,0.984854 -0.328173,1.206682 -0.570267,2.712711 -0.65022,4.044936 l -0.08655,1.442108 -1.784367,0 c -0.981403,0 -1.810748,-0.02616 -1.84299,-0.05813 z M 133.92607,52.787713 c 1.57453,-0.209265 2.51677,-0.372044 3.65803,-0.631957 1.12148,-0.255408 3.83654,-1.112692 4.57254,-1.443785 0.27083,-0.121836 0.71402,-0.322621 0.98485,-0.446186 0.59594,-0.271892 2.5748,-1.426433 2.67318,-1.559624 0.0387,-0.05238 0.28061,-0.242167 0.5376,-0.421734 0.60537,-0.422993 1.77842,-1.598314 2.37416,-2.378775 0.91891,-1.203837 1.59042,-3.131052 1.59042,-4.564416 0,-0.857637 -0.55611,-2.737013 -0.99034,-3.346829 -0.15175,-0.213104 -0.2759,-0.424448 -0.2759,-0.469655 0,-0.326988 -2.12459,-2.429103 -3.1727,-3.139125 -2.02479,-1.371663 -5.03669,-2.636312 -7.52,-3.157525 -5.38126,-1.129455 -10.45053,-1.292688 -16.95355,-0.545908 -1.55426,0.178483 -4.52077,0.621217 -5.5574,0.829408 -0.86929,0.174586 -2.77915,0.582338 -3.37664,0.720909 -0.27083,0.06281 -0.80898,0.186838 -1.19589,0.275609 -0.38691,0.08877 -0.94089,0.22162 -1.23107,0.295218 -0.29018,0.0736 -0.76502,0.192918 -1.0552,0.265154 -0.52389,0.130417 -1.23341,0.325434 -2.1104,0.580061 -0.25149,0.07302 -0.66302,0.190175 -0.91451,0.260349 -0.25149,0.07017 -0.9954,0.297662 -1.65315,0.505532 -0.65774,0.207871 -1.38583,0.428938 -1.61797,0.491261 -0.64924,0.174301 -1.67049,0.524159 -5.205655,1.783338 -0.541669,0.192935 -1.143134,0.417498 -1.336587,0.499029 -0.440883,0.185808 -0.704039,0.286933 -1.758668,0.675822 -0.464288,0.171203 -1.11593,0.432213 -1.448091,0.580023 -0.332162,0.147808 -0.870314,0.368142 -1.195895,0.48963 -0.32558,0.121487 -0.876867,0.34951 -1.225083,0.506717 -0.348217,0.157207 -0.775573,0.341123 -0.949681,0.4087 -0.712234,0.276447 -0.996436,0.398538 -2.004881,0.861283 -0.580361,0.26631 -1.260965,0.572783 -1.512455,0.681052 -0.424235,0.182639 -0.636312,0.550244 -0.317442,0.550244 0.123986,0 1.134094,0.438461 3.658911,1.588234 0.425598,0.193813 1.818463,0.775996 3.095256,1.293741 1.276793,0.517744 2.505277,1.030785 2.729964,1.14009 0.224688,0.109306 0.494622,0.198738 0.599857,0.198738 0.105233,0 0.301269,0.05593 0.435637,0.124278 0.468045,0.238096 0.955057,0.42733 2.073319,0.80561 0.619051,0.209408 1.185694,0.434067 1.259206,0.49924 0.07351,0.06518 0.27554,0.118499 0.448948,0.118499 0.17341,0 0.35442,0.06331 0.40224,0.140694 0.0478,0.07738 0.23777,0.140693 0.42208,0.140693 0.18432,0 0.37426,0.06331 0.42208,0.140694 0.0478,0.07738 0.2107,0.140693 0.36195,0.140693 0.15125,0 0.38493,0.05681 0.5193,0.126241 0.13437,0.06943 0.71914,0.268801 1.2995,0.44304 0.58036,0.174237 1.34011,0.407112 1.68832,0.517497 0.34822,0.110384 0.98134,0.296375 1.40694,0.413312 0.4256,0.116938 0.9954,0.274649 1.26624,0.35047 0.5464,0.152968 1.15481,0.306242 3.23595,0.815216 0.73145,0.178888 1.55634,0.355985 3.58768,0.770246 2.79616,0.570233 4.45892,0.813862 7.23139,1.059555 0.88201,0.07816 1.64032,0.178774 1.68512,0.223583 0.13468,0.134679 9.14523,-0.04293 10.35849,-0.204184 z M 34.455819,43.220446 c 1.642105,-0.115145 4.264525,-0.424703 6.120164,-0.722441 0.502979,-0.0807 1.29438,-0.207873 1.758668,-0.2826 0.464289,-0.07473 1.192377,-0.201058 1.617975,-0.280732 0.425597,-0.07968 1.090374,-0.202337 1.477281,-0.272581 0.386907,-0.07024 0.988371,-0.191632 1.336587,-0.269755 0.348217,-0.07812 0.949681,-0.204936 1.336588,-0.28181 0.655847,-0.13031 5.159552,-1.267539 6.260857,-1.580928 0.270835,-0.07707 0.650708,-0.172146 0.844161,-0.211281 0.193454,-0.03914 0.478358,-0.122482 0.63312,-0.185215 0.154763,-0.06273 0.566292,-0.191931 0.914508,-0.287106 0.348216,-0.09518 0.7914,-0.224424 0.984854,-0.287217 0.193453,-0.06279 1.111478,-0.34581 2.040055,-0.628926 0.928576,-0.283118 1.798257,-0.572614 1.932625,-0.643328 0.134368,-0.07071 0.368051,-0.12857 0.519297,-0.12857 0.151246,0 0.314122,-0.06331 0.361946,-0.140693 0.04783,-0.07738 0.2107,-0.140694 0.361947,-0.140694 0.151245,0 0.384928,-0.06028 0.519296,-0.133955 0.219679,-0.120454 2.411663,-0.912898 3.021417,-1.0923 0.303608,-0.08933 0.215841,-0.244851 -0.282601,-0.500772 C 65.660177,34.864895 64.44757,34.183203 64.282826,34.063576 64.13201,33.954062 62.673139,33.15708 60.624797,32.065193 58.613148,30.992867 54.66119,29.064854 52.605272,28.152766 52.218365,27.981119 51.553588,27.683067 51.127991,27.490428 50.702393,27.297789 49.626088,26.855957 48.736202,26.508578 47.846316,26.1612 46.991604,25.824012 46.836841,25.759271 c -1.168211,-0.488687 -4.658425,-1.710455 -5.627737,-1.97002 -0.232144,-0.06216 -0.960233,-0.272849 -1.617975,-0.46819 -1.613712,-0.479252 -3.318527,-0.939429 -4.044936,-1.091843 -0.32887,-0.069 -0.898679,-0.191677 -1.26624,-0.272611 -4.312991,-0.949688 -8.329486,-1.332644 -12.697582,-1.210664 -1.586319,0.0443 -3.264088,0.149215 -3.728376,0.233145 -2.465461,0.445695 -2.356991,0.422168 -3.86907,0.839145 -0.812324,0.224011 -3.029594,1.102737 -3.622855,1.435774 -0.251489,0.141177 -0.694674,0.390855 -0.984854,0.554837 -2.190884,1.238083 -4.056836,3.543676 -4.621045,5.709825 -0.999594,3.8377 1.911114,8.068613 7.329393,10.653772 1.515664,0.723151 1.711047,0.807714 2.462135,1.065625 0.270835,0.093 0.619051,0.218796 0.773814,0.279549 0.263053,0.103261 0.540197,0.17982 1.969708,0.544119 5.007216,1.27605 10.348776,1.636636 17.164598,1.158712 z"
        id="path4369"
    />
</svg>